<svg aria-hidden="true" style="position: absolute; width: 0; height: 0; overflow: hidden;" version="1.1" xmlns="http://www.w3.org/2000/svg" xmlns:xlink="http://www.w3.org/1999/xlink">
    <defs>
        <symbol id="icon-logo" viewBox="0 0 205 32">
            <path d="M192.259 31.909c-2.394 0-4.455-0.485-6.182-1.454-1.717-0.98-3.040-2.364-3.97-4.151-0.929-1.798-1.394-3.924-1.394-6.379 0-2.394 0.465-4.495 1.394-6.303s2.237-3.217 3.924-4.227c1.697-1.010 3.687-1.515 5.97-1.515 1.535 0 2.965 0.248 4.288 0.742 1.333 0.485 2.495 1.217 3.485 2.197 1 0.98 1.778 2.212 2.333 3.697 0.556 1.475 0.833 3.202 0.833 5.182v1.773h-19.652v-4h13.576c0-0.929-0.202-1.753-0.606-2.47s-0.965-1.278-1.682-1.682c-0.707-0.414-1.53-0.621-2.47-0.621-0.98 0-1.848 0.227-2.606 0.682-0.747 0.444-1.333 1.045-1.757 1.803-0.424 0.747-0.642 1.581-0.652 2.5v3.803c0 1.152 0.212 2.147 0.636 2.985 0.434 0.838 1.045 1.485 1.833 1.939s1.722 0.682 2.803 0.682c0.717 0 1.374-0.101 1.97-0.303s1.106-0.505 1.53-0.909 0.748-0.899 0.97-1.485l5.97 0.394c-0.303 1.434-0.924 2.687-1.863 3.758-0.929 1.061-2.131 1.889-3.606 2.485-1.465 0.586-3.156 0.879-5.076 0.879z"></path>
            <path d="M166.344 31.454v-23.273h6.257v4.061h0.242c0.424-1.444 1.136-2.535 2.136-3.273 1-0.747 2.152-1.121 3.455-1.121 0.323 0 0.672 0.020 1.045 0.061s0.702 0.096 0.985 0.167v5.727c-0.303-0.091-0.722-0.172-1.258-0.242s-1.025-0.106-1.47-0.106c-0.95 0-1.798 0.207-2.546 0.621-0.738 0.404-1.323 0.97-1.758 1.697-0.424 0.727-0.636 1.566-0.636 2.515v13.167h-6.454z"></path>
            <path d="M151.759 31.909c-2.353 0-4.389-0.5-6.106-1.5-1.707-1.010-3.025-2.414-3.955-4.212-0.929-1.808-1.394-3.904-1.394-6.288 0-2.404 0.465-4.505 1.394-6.303 0.929-1.808 2.247-3.212 3.955-4.212 1.717-1.010 3.753-1.515 6.106-1.515s4.384 0.505 6.091 1.515c1.717 1 3.040 2.404 3.97 4.212 0.929 1.798 1.394 3.899 1.394 6.303 0 2.384-0.465 4.48-1.394 6.288-0.929 1.798-2.253 3.202-3.97 4.212-1.707 1-3.737 1.5-6.091 1.5zM151.789 26.909c1.071 0 1.965-0.303 2.682-0.909 0.717-0.616 1.258-1.454 1.621-2.515 0.374-1.060 0.561-2.268 0.561-3.621s-0.187-2.561-0.561-3.621c-0.364-1.061-0.904-1.899-1.621-2.515s-1.611-0.924-2.682-0.924c-1.081 0-1.99 0.308-2.727 0.924-0.727 0.616-1.278 1.455-1.651 2.515-0.364 1.061-0.546 2.268-0.546 3.621s0.182 2.561 0.546 3.621c0.374 1.061 0.924 1.899 1.651 2.515 0.738 0.606 1.647 0.909 2.727 0.909z"></path>
            <path d="M138.356 8.182v4.848h-14.015v-4.848h14.015zM127.523 2.606h6.454v21.697c0 0.596 0.091 1.060 0.273 1.394 0.182 0.323 0.434 0.55 0.758 0.682 0.333 0.131 0.717 0.197 1.152 0.197 0.303 0 0.606-0.025 0.909-0.076 0.303-0.061 0.535-0.106 0.697-0.136l1.015 4.803c-0.323 0.101-0.778 0.217-1.364 0.348-0.586 0.141-1.298 0.227-2.137 0.258-1.555 0.061-2.919-0.147-4.091-0.621-1.162-0.475-2.066-1.212-2.712-2.212s-0.965-2.263-0.954-3.788v-22.546z"></path>
            <path d="M116.040 9.348c-0.121-1.222-0.641-2.172-1.561-2.848s-2.167-1.015-3.743-1.015c-1.071 0-1.975 0.152-2.712 0.455-0.737 0.293-1.303 0.702-1.697 1.227-0.384 0.525-0.576 1.121-0.576 1.788-0.020 0.556 0.096 1.040 0.348 1.455 0.263 0.414 0.621 0.773 1.076 1.076 0.454 0.293 0.98 0.55 1.576 0.773 0.596 0.212 1.232 0.394 1.909 0.545l2.788 0.667c1.354 0.303 2.596 0.707 3.727 1.212s2.111 1.126 2.939 1.864c0.828 0.737 1.47 1.606 1.924 2.606 0.465 1 0.702 2.146 0.712 3.439-0.010 1.899-0.495 3.545-1.454 4.939-0.95 1.384-2.323 2.46-4.121 3.227-1.788 0.758-3.945 1.136-6.47 1.136-2.505 0-4.687-0.384-6.546-1.152-1.849-0.768-3.293-1.904-4.333-3.409-1.030-1.515-1.571-3.389-1.621-5.621h6.349c0.071 1.040 0.369 1.909 0.894 2.606 0.535 0.687 1.248 1.207 2.136 1.561 0.899 0.343 1.914 0.515 3.046 0.515 1.111 0 2.076-0.162 2.894-0.485 0.828-0.323 1.47-0.773 1.924-1.348s0.682-1.237 0.682-1.985c0-0.697-0.207-1.283-0.621-1.758-0.404-0.475-1-0.879-1.788-1.212-0.778-0.333-1.732-0.636-2.864-0.909l-3.379-0.848c-2.616-0.636-4.682-1.631-6.197-2.985s-2.268-3.177-2.258-5.47c-0.010-1.879 0.49-3.52 1.5-4.924 1.020-1.404 2.419-2.5 4.197-3.288s3.798-1.182 6.061-1.182c2.303 0 4.313 0.394 6.030 1.182 1.727 0.788 3.071 1.884 4.030 3.288s1.454 3.030 1.485 4.879h-6.288z"></path>
            <path d="M79.982 18v13.454h-6.455v-31.030h6.273v11.864h0.273c0.525-1.374 1.374-2.45 2.546-3.227 1.172-0.788 2.641-1.182 4.409-1.182 1.616 0 3.025 0.354 4.227 1.061 1.212 0.697 2.151 1.702 2.818 3.015 0.677 1.303 1.010 2.864 1 4.682v14.818h-6.455v-13.667c0.010-1.434-0.353-2.55-1.091-3.348-0.727-0.798-1.747-1.197-3.060-1.197-0.879 0-1.657 0.187-2.333 0.561-0.667 0.374-1.192 0.919-1.576 1.636-0.374 0.707-0.566 1.561-0.576 2.561z"></path>
            <path d="M60.068 31.909c-2.384 0-4.434-0.505-6.152-1.515-1.707-1.020-3.020-2.434-3.939-4.243-0.909-1.808-1.364-3.889-1.364-6.242 0-2.384 0.46-4.475 1.379-6.273 0.929-1.808 2.247-3.217 3.955-4.227 1.707-1.020 3.737-1.53 6.091-1.53 2.030 0 3.808 0.369 5.333 1.106s2.732 1.773 3.621 3.106 1.379 2.899 1.47 4.697h-6.091c-0.172-1.162-0.626-2.096-1.364-2.803-0.727-0.717-1.682-1.076-2.864-1.076-1 0-1.874 0.273-2.621 0.818-0.737 0.535-1.313 1.318-1.727 2.348s-0.621 2.278-0.621 3.742c0 1.485 0.202 2.748 0.606 3.788 0.414 1.040 0.995 1.833 1.742 2.379s1.621 0.818 2.621 0.818c0.737 0 1.399-0.151 1.985-0.454 0.596-0.303 1.086-0.743 1.47-1.318 0.394-0.586 0.652-1.288 0.773-2.106h6.091c-0.101 1.778-0.586 3.344-1.454 4.697-0.858 1.343-2.045 2.394-3.561 3.151s-3.308 1.136-5.379 1.136z"></path>
            <path d="M35.725 31.909c-2.394 0-4.455-0.485-6.182-1.454-1.717-0.98-3.040-2.364-3.97-4.151-0.929-1.798-1.394-3.924-1.394-6.379 0-2.394 0.465-4.495 1.394-6.303s2.237-3.217 3.924-4.227c1.697-1.010 3.687-1.515 5.97-1.515 1.535 0 2.965 0.248 4.288 0.742 1.333 0.485 2.495 1.217 3.485 2.197 1 0.98 1.778 2.212 2.333 3.697 0.556 1.475 0.834 3.202 0.834 5.182v1.773h-19.652v-4h13.576c0-0.929-0.202-1.753-0.606-2.47s-0.965-1.278-1.682-1.682c-0.707-0.414-1.53-0.621-2.47-0.621-0.98 0-1.848 0.227-2.606 0.682-0.747 0.444-1.333 1.045-1.757 1.803-0.424 0.747-0.642 1.581-0.652 2.5v3.803c0 1.152 0.212 2.147 0.636 2.985 0.434 0.838 1.045 1.485 1.833 1.939s1.722 0.682 2.803 0.682c0.717 0 1.374-0.101 1.97-0.303s1.106-0.505 1.53-0.909 0.748-0.899 0.97-1.485l5.97 0.394c-0.303 1.434-0.924 2.687-1.863 3.758-0.929 1.061-2.131 1.889-3.606 2.485-1.465 0.586-3.156 0.879-5.076 0.879z"></path>
            <path d="M0 5.833v-5.409h25.485v5.409h-9.5v25.621h-6.485v-25.621h-9.5z"></path>
        </symbol>
        <symbol id="icon-burger" viewBox="0 0 64 32">
            <path stroke-linejoin="round" stroke-linecap="round" stroke-miterlimit="4" stroke-width="5.3333" d="M2.667 2.667h56.889M2.667 27.556h56.889"></path>
        </symbol>
        <symbol id="icon-star" viewBox="0 0 33 32">
            <path d="M16.667 25.649l-10.301 6.351 2.801-11.852-9.166-7.925 12.031-0.973 4.635-11.25 4.635 11.25 12.031 0.973-9.166 7.925 2.801 11.852-10.301-6.351z"></path>
        </symbol>
        <symbol id="icon-favorite" viewBox="0 0 37 32">
            <path stroke-linejoin="round" stroke-linecap="round" stroke-miterlimit="4" stroke-width="2.9474" d="M15.639 29.209c-4.752-3.553-14.165-11.676-14.165-18.987 0-4.832 3.546-8.749 8.421-8.749 2.526 0 5.053 0.842 8.421 4.211 3.368-3.368 5.895-4.211 8.421-4.211 4.875 0 8.421 3.917 8.421 8.749 0 7.31-9.414 15.433-14.165 18.987-1.599 1.196-3.754 1.196-5.353 0z"></path>
        </symbol>
        <symbol id="icon-arrow-down" viewBox="0 0 56 32">
            <path stroke-linejoin="round" stroke-linecap="round" stroke-miterlimit="4" stroke-width="7" d="M51.5 3.5c0 0-17.676 24-24 24s-24-24-24-24"></path>
        </symbol>
    </defs>
</svg>